<svg width="202.91" height="36.00" viewBox="0 0 202.91 36.00" fill="none" xmlns="http://www.w3.org/2000/svg">
<g clip-path="url(#clip0_11_1912)">
<path d="M196.708 0.000484467L185.378 15.6372H178.069L166.738 0.000484467H160.536L173.579 17.9999L160.536 36H166.738L178.069 20.3619H185.378L196.708 36H202.91L189.868 17.9999L202.91 0.000484467H196.708Z" fill="black"/>
<path d="M158.092 4.72485V0.00044632H127.126V35.9985H158.092V31.2741H132.015V20.3618H154.83V15.6358H132.015V4.72485H158.092Z" fill="black"/>
<path d="M123.866 0.00044632H88.0103V4.72485H103.494V35.9985H108.384V4.72485H123.866V0.00044632Z" fill="black"/>
<path d="M79.8599 -0.00101471V28.1162L59.4871 -0.00101471H45.6332V35.9985H50.5235V4.72632H56.7081L79.3704 35.9985H84.7502V-0.00101471H79.8599Z" fill="black"/>
<path d="M35.8556 0.00044632H40.7444V35.9985H35.8556V0.00044632Z" fill="black"/>
<path d="M4.88877 31.2733V0.00044632H0V35.9985H30.966V31.2733H4.88877Z" fill="black"/>
</g>
<defs>
<clipPath id="clip0_11_1912">
<rect width="202.909" height="36" fill="white"/>
</clipPath>
</defs>
</svg>
