<?xml version="1.0" standalone="no"?>
<!DOCTYPE svg PUBLIC "-//W3C//DTD SVG 20010904//EN"
 "http://www.w3.org/TR/2001/REC-SVG-20010904/DTD/svg10.dtd">
<svg version="1.0" xmlns="http://www.w3.org/2000/svg"
 width="888" height="376" viewBox="0 0 888 376"
 preserveAspectRatio="xMidYMid meet">

<g transform="translate(0.000000,376.000000) scale(0.100000,-0.100000)"
fill="#000000" stroke="none">
<path d="M0 1880 l0 -1880 4440 0 4440 0 0 1880 0 1880 -4440 0 -4440 0 0
-1880z m4879 -707 c193 -429 351 -784 351 -787 0 -3 -55 -6 -123 -6 l-123 0
-78 185 -79 185 -320 -2 -320 -3 -82 -180 -82 -180 -122 -3 c-66 -1 -121 1
-121 5 0 20 735 1582 741 1576 5 -5 166 -360 358 -790z m1406 707 c133 -42
223 -99 332 -210 l62 -63 -80 -76 -80 -76 -78 76 c-48 49 -100 88 -140 109
-216 109 -482 59 -646 -122 -98 -107 -145 -231 -145 -381 0 -175 43 -282 159
-397 127 -127 251 -177 413 -168 111 6 213 52 294 132 55 56 106 148 118 214
l6 32 -190 0 -190 0 0 105 0 105 314 0 313 0 -4 -92 c-6 -141 -28 -242 -75
-338 -34 -70 -57 -101 -132 -175 -99 -99 -182 -148 -306 -181 -81 -22 -280
-25 -360 -5 -142 35 -269 110 -377 225 -139 146 -202 293 -211 490 -10 244 51
415 211 583 115 120 240 193 393 227 102 23 306 16 399 -14z m1643 10 c271
-65 503 -293 572 -565 27 -107 28 -282 0 -389 -112 -439 -585 -689 -1023 -540
-112 38 -202 97 -303 199 -78 78 -99 106 -137 186 -65 134 -81 218 -74 388 6
181 36 270 133 407 111 157 294 279 478 319 94 21 256 18 354 -5z m-5196 -652
l3 -643 443 -3 442 -2 0 -105 0 -105 -555 0 -555 0 0 750 0 750 110 0 110 0 2
-642z"/>
<path d="M4496 1430 c-8 -19 -59 -133 -114 -252 l-101 -218 225 0 c123 0 224
3 224 6 0 7 -187 439 -205 474 l-14 25 -15 -35z"/>
<path d="M7648 1690 c-211 -36 -389 -197 -443 -401 -31 -117 -14 -312 37 -413
57 -114 176 -223 298 -272 78 -32 231 -44 323 -24 93 19 193 75 267 150 113
114 160 233 160 402 0 166 -44 280 -153 394 -128 136 -305 195 -489 164z"/>
</g>
</svg>
