<svg xmlns="http://www.w3.org/2000/svg" viewBox="0 0 312.3 312.3">
  <defs>
    <style>
      .cls-1 { fill: #ff5100; }
    </style>
  </defs>
  <g transform="translate(84.46, 0)">
    <path class="cls-1" d="M0,231.68s-.34,33.52,11.12,47.45c11.46,13.93,26.96,40.56,69.72,31.23,42.13-9.2,54.77-22.76,60.4-47.42,5.63-24.66.23-57.83-16.99-72.75-17.22-14.91-54.5-33.74-82.77-19.24C13.22,185.46,1.3,214.35,0,231.68Z"/><path class="cls-1" d="M68.96.2C25.92,2.9,12.5,18.38,4.87,42.5-2.77,66.62-.11,100.12,15.82,116.39c15.94,16.27,51.55,38.1,80.91,25.96,29.36-12.13,43.61-39.94,46.32-57.11,0,0,2.41-32.53-7.86-47.35C124.93,23.08,112-2.5,68.96.2Z"/>
  </g>
</svg>