<svg xmlns="http://www.w3.org/2000/svg" width="602" height="1280" viewBox="0 0 602 1280" preserveAspectRatio="xMidYMid meet">
  <g transform="translate(0,1280) scale(0.1,-0.1)" fill="#000000" stroke="none">
    <path d="M2925 12789 c-969 -67 -1568 -257 -2000 -635 -402 -352 -682 -968
-786 -1729 -30 -219 -37 -651 -14 -880 57 -581 230 -1067 499 -1401 129 -161
404 -404 668 -590 556 -393 1133 -637 1682 -709 154 -20 454 -20 589 0 262 39
474 113 741 257 409 221 770 540 1059 937 298 406 526 949 557 1320 35 425
-21 1074 -125 1436 -65 226 -116 329 -303 605 -264 390 -380 537 -573 726
-198 192 -353 302 -594 419 -214 105 -398 163 -644 205 -228 39 -535 55 -756
39z"/>
    <path d="M2490 5994 c-14 -2 -65 -9 -114 -15 -290 -36 -590 -158 -902 -366
-506 -337 -923 -847 -1172 -1433 -92 -218 -173 -494 -206 -706 -47 -299 12
-972 124 -1414 59 -234 146 -454 231 -585 47 -72 304 -400 438 -560 378 -450
773 -721 1218 -835 337 -87 638 -97 1048 -34 256 39 692 147 987 245 742 245
1194 570 1454 1046 284 518 400 1315 298 2048 -92 669 -332 1217 -681 1557
-102 99 -279 237 -453 353 -592 393 -1218 634 -1809 694 -95 10 -403 13 -461
5z"/>
  </g>
</svg>
