<?xml version="1.0" encoding="utf-8"?>
<!-- Generator: Adobe Illustrator 16.0.0, SVG Export Plug-In . SVG Version: 6.00 Build 0)  -->
<!DOCTYPE svg PUBLIC "-//W3C//DTD SVG 1.1//EN" "http://www.w3.org/Graphics/SVG/1.1/DTD/svg11.dtd">
<svg version="1.1" id="Livello_1" xmlns="http://www.w3.org/2000/svg" xmlns:xlink="http://www.w3.org/1999/xlink" x="0px" y="0px"
	 width="279.64px" height="64.91px" viewBox="0 0 279.64 64.91" enable-background="new 0 0 279.64 64.91" xml:space="preserve">
<g>
	<polygon points="13.528,0 7.972,15.449 17.117,42.41 0.473,42.41 0,44.07 17.854,44.07 24.571,63.248 17.208,63.248 17.208,64.91 
		44.631,64.91 44.631,63.248 40.122,63.248 16.012,0 	"/>
	<path d="M44.631,0v1.658h9.193L76.011,64.91h2.483l6.076-17.453L68.188,0H44.631z M100.119,0v63.248h-7.915v1.662h29.172v-1.662
		h-6.903V1.658h6.903V0H100.119z"/>
	<polygon points="133.548,0 133.548,1.658 141.002,1.658 141.002,63.248 133.548,63.248 133.548,64.91 162.812,64.91 
		162.812,63.248 155.359,63.248 155.359,1.658 162.812,1.658 162.812,0 	"/>
	<g>
		<defs>
			<rect id="SVGID_1_" width="279.639" height="64.91"/>
		</defs>
		<clipPath id="SVGID_2_">
			<use xlink:href="#SVGID_1_"  overflow="visible"/>
		</clipPath>
		<path clip-path="url(#SVGID_2_)" d="M231.021,64.904h-4.836L177.84,1.658h-2.857V0h18.959l34.691,44.714h0.184v-37.8
			c0-3.504-2.211-5.256-6.258-5.256h-1.748V0h17.389v1.658h-1.286c-4.142,0-5.892,2.674-5.892,4.979V64.904z"/>
	</g>
	<polygon points="250.377,0 250.377,1.658 257.828,1.658 257.828,63.248 250.377,63.248 250.377,64.91 279.64,64.91 279.64,63.248 
		272.183,63.248 272.183,1.658 279.64,1.658 279.64,0 	"/>
</g>
</svg>
