<svg width="104" height="26" viewBox="0 0 104 26" fill="none" xmlns="http://www.w3.org/2000/svg">
<path d="M23.2267 10.0348C23.2267 6.64614 22.1778 4.13487 20.07 2.49095C17.9722 0.847024 15.3904 0.0200195 12.3345 0.0200195C10.7511 0.0200195 9.24833 0.26207 7.83637 0.736084C6.41433 1.22018 5.10322 1.95642 3.90306 2.96496C2.70289 3.9735 1.74478 5.35521 1.04888 7.09998C0.342904 8.84476 0 10.882 0 13.2118C0 17.3871 1.15982 20.564 3.47947 22.7324C5.79912 24.9108 8.66338 25.99 12.0823 25.99C18.2647 25.99 21.966 22.8736 23.1864 16.6408H23.0754C21.3811 20.3724 18.5975 22.2382 14.7146 22.2382C12.4454 22.2382 10.5897 21.3709 9.13739 19.6462C7.68509 17.9216 6.94886 15.4104 6.94886 12.1225V11.2955H23.1158C23.1864 10.7509 23.2267 10.3172 23.2267 10.0147M16.651 9.39946C16.651 9.77262 16.6309 10.1054 16.6006 10.3777H6.94886C7.23125 4.02393 8.9962 0.847024 12.2235 0.847024C15.1685 0.847024 16.6409 3.7012 16.6409 9.41963" fill="#231F20"/>
<path d="M43.5679 17.912C43.5175 20.8771 43.4872 22.3698 43.4872 22.4C43.4872 22.8438 43.2754 23.2068 42.8417 23.4791L39.8262 25.6879V25.7887H54.1172V25.6879L50.9403 23.4791C50.547 23.1766 50.3453 22.7933 50.3453 22.3496C50.4159 16.8732 50.4562 12.9903 50.4562 10.6908C50.4461 3.72181 47.8139 0.222168 42.5694 0.222168C38.4042 0.222168 35.6508 2.30985 34.3196 6.48521V0.63567H23.8105V0.736524L26.9875 3.29822C27.3505 3.57053 27.522 3.96386 27.522 4.47822V22.3597C27.522 22.8438 27.3404 23.2169 26.9875 23.4892L23.8105 25.6979V25.7988H38.1016V25.6979L34.9247 23.4892C34.5313 23.1867 34.3296 22.8034 34.3296 22.3597V6.89872C35.6206 4.81103 37.2544 3.76215 39.2312 3.76215C40.8448 3.76215 41.9845 4.43787 42.6501 5.78932C43.3158 7.14077 43.6486 9.25871 43.6486 12.133C43.6486 13.0206 43.6183 14.9469 43.5679 17.912Z" fill="#231F20"/>
<path d="M77.3146 10.035C77.3146 6.64631 76.2657 4.13504 74.1579 2.49112C72.05 0.847193 69.4782 0.0302734 66.4224 0.0302734C64.839 0.0302734 63.3362 0.272324 61.9243 0.746338C60.5022 1.23044 59.1911 1.96667 57.9909 2.97522C56.7908 3.98376 55.8327 5.36546 55.1368 7.11024C54.4308 8.85502 54.0879 10.8923 54.0879 13.222C54.0879 17.3974 55.2477 20.5743 57.5674 22.7426C59.887 24.9211 62.7513 26.0002 66.1702 26.0002C72.3526 26.0002 76.0539 22.8838 77.2743 16.651H77.1633C75.469 20.3827 72.6854 22.2485 68.8025 22.2485C66.5333 22.2485 64.6776 21.3811 63.2253 19.6565C61.773 17.9319 61.0367 15.4206 61.0367 12.1328V11.3058H77.2138C77.2844 10.7612 77.3247 10.3275 77.3247 10.0249M70.749 9.40971C70.749 9.78288 70.7288 10.1157 70.6986 10.388H61.0468C61.3393 4.0241 63.0942 0.837107 66.3316 0.837107C69.2765 0.837107 70.749 3.69128 70.749 9.40971Z" fill="#231F20"/>
<path d="M88.327 11.4167C85.9569 11.4167 83.8793 12.0924 82.1043 13.4439C80.3292 14.7953 79.4316 16.6712 79.4316 19.0614C79.4316 21.2197 80.1275 22.9141 81.5092 24.1445C82.8909 25.3749 84.5954 25.9901 86.6024 25.9901C88.327 25.9901 89.8499 25.5262 91.161 24.5782C92.4721 23.6402 93.4 22.3594 93.9345 20.7558C93.9647 22.4703 94.4488 23.7713 95.3666 24.6589C96.2844 25.5464 97.4644 25.9901 98.8965 25.9901C100.006 25.9901 100.974 25.738 101.781 25.2236C102.588 24.7093 103.173 24.0436 103.536 23.2166C103.828 22.6014 103.949 22.0165 103.919 21.4719H103.808C103.516 22.2989 102.981 22.7023 102.194 22.7023C100.904 22.7023 100.308 21.6231 100.419 19.4649L100.742 11.3058V10.3779C100.742 6.54544 99.895 3.79212 98.2107 2.10785C96.6979 0.705979 94.1866 0 90.6668 0C87.147 0 84.0003 0.605125 80.8033 1.7952L83.6574 8.77432H83.7684L87.5403 1.53298C87.7219 1.22034 87.8933 1.0388 88.0547 0.9682C88.216 0.897602 88.5892 0.867346 89.1641 0.867346C90.8181 0.867346 92.0586 1.44222 92.8856 2.58187C93.7126 3.73161 94.1261 5.27468 94.1261 7.23125V7.43296L94.0152 12.9295C92.573 11.9008 90.687 11.3864 88.3572 11.3864M94.0152 13.2825L93.9042 20.2616C92.8654 21.8652 91.514 22.672 89.86 22.672C88.7808 22.672 87.8933 22.2787 87.1873 21.492C86.4914 20.7054 86.1384 19.6262 86.1384 18.2546C86.1384 16.7115 86.6024 15.4307 87.5403 14.402C88.4783 13.3733 89.749 12.8589 91.3728 12.8589C92.3813 12.8589 93.2588 13.0001 94.0152 13.2724" fill="#231F20"/>
</svg>
