<?xml version="1.0" encoding="utf-8"?>
<!-- Generator: Adobe Illustrator 26.4.1, SVG Export Plug-In . SVG Version: 6.00 Build 0)  -->
<svg version="1.1" id="Layer_1" xmlns="http://www.w3.org/2000/svg" xmlns:xlink="http://www.w3.org/1999/xlink" x="0px" y="0px"
	 viewBox="0 0 183 47.6" style="enable-background:new 0 0 183 47.6;" xml:space="preserve">
<g>
	<path d="M66.7,36.6c-7.1,0-8.9-7.2-8.9-13c0-5.7,2-12.5,8.7-12.5c6.5-0.2,9,6.3,9,12.5C75.6,31.1,73.1,36.6,66.7,36.6 M160,35.9
		v-7.1h18.7V18.2H160v-6.5h22.1V1.2h-49.4l-5.1,28h-0.1l-5.4-28h-12.3l-5.4,28h-0.1l-5.1-28H84.9l2.5,10.1C83.8,4.7,77,0,66.7,0
		c-11.8,0-20.5,6.5-23,17V1.2H28.8v15.3h-14V1.2H0v45.3h14.8V28.9h14v17.5h14.8V30.3c2.5,11.1,11.1,17.3,23,17.3
		c13.4,0,23.8-8.7,23.8-24.1c0,0,0-0.1,0-0.1l5.7,23h14.6l5.2-26.3h0.1l5.2,26.3h14.6l9.4-37.8v37.8H183V35.9H160z"/>
</g>
</svg>
