<?xml version="1.0" encoding="UTF-8"?>
<svg id="Calque_1" data-name="Calque 1" xmlns="http://www.w3.org/2000/svg" viewBox="0 0 223.268 197.832">
  <defs>
    <style>
      .cls-1 {
        fill: #fff;
      }
    </style>
  </defs>
  <polygon class="cls-1" points="119.38 .826 113.324 14.702 117.648 14.702 123.856 .826 119.38 .826"/>
  <g>
    <polygon class="cls-1" points=".254 61.251 .254 73.711 11.244 73.711 11.244 193.75 23.595 193.75 23.595 61.251 .254 61.251"/>
    <polygon class="cls-1" points="186.356 61.251 186.356 73.711 197.264 73.711 197.264 193.75 209.615 193.75 209.615 61.251 186.356 61.251"/>
  </g>
  <g>
    <path class="cls-1" d="M89.772,108.912s-8.512,1.854-11.377,5.562c-2.865,3.708-8.716,9.177-3.877,19.468,4.769,10.141,8.933,12.557,15.507,12.557s14.664-3.287,17.445-8.512c2.781-5.225,5.393-15.759.084-22.08-5.309-6.32-13.315-7.669-17.782-6.995Z"/>
    <path class="cls-1" d="M154.136,126.882c-.701-11.184-4.725-14.669-10.992-16.653-6.267-1.985-14.972-1.294-19.201,2.847-4.229,4.142-9.9,13.396-6.747,21.025,3.153,7.629,10.379,11.331,14.84,12.037,0,0,8.452.627,12.303-2.042,3.851-2.67,10.498-6.03,9.796-17.213Z"/>
  </g>
  <path class="cls-1" d="M111.379,186.118c-32.261,0-58.413-26.152-58.413-58.413s26.152-58.413,58.413-58.413c19.573,0,36.885,9.637,47.484,24.414l8.38-8.38c-12.808-16.857-33.06-27.747-55.864-27.747-38.73,0-70.126,31.396-70.126,70.126s31.397,70.126,70.126,70.126c25.502,0,47.819-13.615,60.093-33.97l-8.589-8.589c-9.847,18.358-29.214,30.846-51.504,30.846Z"/>
  <g>
    <path class="cls-1" d="M68.723,2.367c-1.388-.87-2.94-1.489-4.614-1.84-1.671-.349-3.287-.527-4.802-.527h-12.744v43.893h4.508v-20.612h9.157c1.731,0,3.414-.23,5-.684,1.59-.452,3.02-1.157,4.249-2.094,1.229-.938,2.221-2.151,2.949-3.607.729-1.458,1.098-3.205,1.098-5.195,0-2.276-.454-4.204-1.35-5.731-.896-1.519-2.057-2.731-3.45-3.604ZM69.015,11.701c0,1.383-.259,2.565-.769,3.51-.515.948-1.193,1.716-2.016,2.282-.829.573-1.794.995-2.867,1.254-1.081.26-2.196.392-3.319.392h-8.972V4.141h8.726c1.122,0,2.259.142,3.381.422,1.111.279,2.106.731,2.957,1.344.847.61,1.548,1.401,2.082,2.349.529.943.799,2.101.799,3.445Z"/>
    <path class="cls-1" d="M106.156,5.971c-.893-1.516-2.054-2.729-3.449-3.604-1.388-.871-2.941-1.49-4.616-1.84-1.67-.349-3.285-.527-4.8-.527h-12.744v43.893h4.508v-20.612h9.155c1.731,0,3.414-.23,5.001-.684,1.591-.453,3.02-1.158,4.249-2.094,1.229-.938,2.221-2.151,2.95-3.607.727-1.46,1.097-3.208,1.097-5.195,0-2.277-.454-4.205-1.351-5.731ZM103,11.701c0,1.384-.259,2.565-.771,3.51-.513.948-1.19,1.715-2.015,2.282-.828.572-1.792.994-2.867,1.254-1.081.26-2.198.392-3.321.392h-8.971V4.141h8.726c1.122,0,2.259.142,3.379.422,1.113.279,2.108.731,2.957,1.343.85.613,1.551,1.404,2.082,2.35.531.942.8,2.1.8,3.445Z"/>
    <polygon class="cls-1" points="23.596 .068 19.125 .068 .141 43.57 0 43.892 4.73 43.892 9.63 32.377 19.495 32.377 21.363 28.242 11.417 28.242 21.172 5.304 36.949 43.749 37.007 43.892 42.04 43.892 23.655 .208 23.596 .068"/>
  </g>
  <g>
    <polygon class="cls-1" points="132.69 .733 114.143 43.228 117.418 43.228 122.317 31.712 132.351 31.712 133.617 28.908 123.54 28.908 134.312 3.579 150.582 43.228 154.166 43.228 136.28 .733 132.69 .733"/>
    <g>
      <polygon class="cls-1" points="192.336 .665 191.066 3.477 205.538 3.477 205.538 43.228 208.718 43.228 208.718 3.477 221.999 3.477 223.268 .665 192.336 .665"/>
      <path class="cls-1" d="M221.999,3.477h-13.281v39.751h-3.18V3.477h-14.472l1.27-2.812h30.933l-1.27,2.812Z"/>
      <path class="cls-1" d="M175.663,22.373c1.149-.156,2.384-.44,3.67-.843,1.251-.39,2.412-.996,3.452-1.799,1.031-.798,1.9-1.855,2.582-3.141.678-1.284,1.023-2.949,1.023-4.951,0-1.807-.297-3.354-.88-4.6-.585-1.25-1.335-2.298-2.23-3.114-.896-.817-1.923-1.449-3.05-1.876-1.155-.439-2.304-.761-3.418-.96-1.116-.2-2.17-.322-3.133-.363-.973-.041-1.744-.061-2.311-.061h-10.975v42.563h3.178V3.477h9.023c2.172,0,3.97.279,5.346.828,1.38.552,2.474,1.247,3.251,2.067.778.823,1.319,1.727,1.606,2.69.276.942.416,1.808.416,2.578s-.14,1.641-.416,2.577c-.287.965-.826,1.871-1.606,2.693-.777.82-1.872,1.516-3.251,2.067-1.154.461-2.642.729-4.428.799l-1.476,3.24,11.972,20.213h3.58l-12.58-20.766.657-.089Z"/>
      <path class="cls-1" d="M187.585,43.228h-3.58l-11.972-20.213,1.476-3.24c1.786-.069,3.274-.337,4.428-.799,1.379-.551,2.474-1.247,3.251-2.067.78-.822,1.319-1.728,1.606-2.693.276-.936.416-1.804.416-2.577s-.14-1.636-.416-2.578c-.287-.963-.828-1.868-1.606-2.69-.777-.82-1.871-1.515-3.251-2.067-1.376-.549-3.174-.828-5.346-.828h-9.023v39.751h-3.178V.665h10.975c.567,0,1.338.02,2.311.061.963.041,2.018.163,3.133.363,1.114.199,2.263.521,3.418.96,1.127.428,2.154,1.06,3.05,1.876.895.817,1.645,1.864,2.23,3.114.583,1.245.88,2.792.88,4.6,0,2.002-.345,3.667-1.023,4.951-.682,1.287-1.551,2.343-2.582,3.141-1.04.803-2.201,1.409-3.452,1.799-1.286.403-2.521.687-3.67.843l-.657.089,12.58,20.766Z"/>
    </g>
  </g>
</svg>