<svg xmlns="http://www.w3.org/2000/svg" viewBox="0 0 64 64" width="64" height="64">
  <g transform="translate(32,32) rotate(90) scale(0.5818) translate(-55,-35)">
    <path d="M 37.34 57.50 C33.52,59.10 22.83,59.42 19.50,58.05 C14.25,55.87 5.99,41.57 6.01,34.68 C6.02,29.84 10.39,21.41 14.62,18.09 C22.22,12.10 35.45,11.76 43.70,17.32 C50.38,21.82 52.53,25.95 52.39,34.00 C52.20,45.02 46.72,53.59 37.34,57.50 Z M 90.00 58.00 C78.75,61.18 68.52,56.87 62.36,46.36 C60.16,42.59 59.83,41.03 60.19,36.03 C60.77,28.00 65.92,19.43 72.07,16.25 C80.40,11.94 95.99,13.76 101.22,19.66 C105.64,24.63 107.48,38.52 104.63,45.34 C102.89,49.51 94.57,56.71 90.00,58.00 Z" fill="#EA540D"/>
  </g>
</svg>
