<?xml version="1.0" encoding="UTF-8"?>
<svg id="Calque_1" data-name="Calque 1" xmlns="http://www.w3.org/2000/svg" viewBox="0 0 416.15 118.17">
  <defs>
    <style>
      .cls-1 {
        fill: #ff5100;
      }
    </style>
  </defs>
  <g>
    <polygon class="cls-1" points="23.71 1.25 0 55.57 6.93 55.57 12.88 41.58 25.23 41.58 27.3 36.83 27.3 35.47 15.51 35.47 26.54 9.55 45.42 55.57 52.71 55.57 29.85 1.25 23.71 1.25"/>
    <polygon class="cls-1" points="189.12 24.56 161.3 24.56 161.3 1.35 154.75 1.35 154.75 55.66 161.3 55.66 161.3 30.67 189.12 30.67 189.12 55.66 195.67 55.66 195.67 1.35 189.12 1.35 189.12 24.56"/>
    <rect class="cls-1" x="208.46" y="1.35" width="6.55" height="54.31"/>
    <polygon class="cls-1" points="221.48 6.33 221.48 7.45 239.49 7.45 239.49 55.66 246.04 55.66 246.04 7.45 261.87 7.45 264.04 2.48 264.04 1.35 223.71 1.35 221.48 6.33"/>
    <path class="cls-1" d="M347.14,33.42c0,1.83-.17,3.81-.51,5.89-.33,2.03-.99,3.94-1.95,5.69-.95,1.71-2.3,3.13-4.04,4.25-1.72,1.1-4.06,1.66-6.96,1.66s-5.24-.56-6.96-1.66c-1.74-1.11-3.1-2.54-4.04-4.25-.97-1.74-1.62-3.66-1.95-5.69-.34-2.08-.51-4.06-.51-5.89V1.35h-6.55v33.33c0,2.88.33,5.68.99,8.31.67,2.68,1.81,5.08,3.38,7.14,1.58,2.08,3.68,3.76,6.25,5,2.56,1.24,5.72,1.87,9.4,1.87s6.84-.63,9.4-1.87c2.56-1.24,4.66-2.92,6.25-5,1.57-2.06,2.71-4.47,3.38-7.14.66-2.64.99-5.43.99-8.31V1.35h-6.55v32.07Z"/>
    <path class="cls-1" d="M82.98,29.29c1.67-.52,3.22-1.33,4.61-2.4,1.4-1.08,2.58-2.51,3.5-4.24.93-1.75,1.4-3.98,1.4-6.63,0-2.39-.4-4.46-1.19-6.15-.79-1.68-1.8-3.09-3.02-4.2-1.21-1.11-2.6-1.96-4.13-2.54-1.48-.56-2.95-.97-4.39-1.23-1.42-.25-2.76-.41-3.98-.46-1.2-.05-2.16-.07-2.86-.07h-14.66v54.31h6.55V7.45h9.6c2.46,0,4.47.31,5.98.91,1.49.6,2.66,1.33,3.47,2.18.8.84,1.35,1.76,1.63,2.72.3,1.01.45,1.94.45,2.74s-.15,1.73-.45,2.74c-.29.96-.83,1.88-1.63,2.72-.81.85-1.97,1.59-3.47,2.18-1.51.6-3.52.91-5.98.91h-.71l-1.98,4.43,15.76,26.67h7.5l-15.45-25.5c1.11-.21,2.27-.5,3.45-.87Z"/>
    <path class="cls-1" d="M295.58,29.03c1.67-.52,3.22-1.33,4.61-2.4,1.4-1.08,2.58-2.51,3.5-4.24.93-1.75,1.4-3.98,1.4-6.63,0-2.39-.4-4.46-1.19-6.15-.79-1.68-1.8-3.09-3.02-4.2-1.21-1.11-2.6-1.96-4.13-2.54-1.48-.56-2.95-.97-4.39-1.23-1.42-.25-2.76-.41-3.98-.46-1.2-.05-2.16-.07-2.86-.07h-14.66v54.31h6.55V7.19h9.6c2.46,0,4.47.31,5.98.91,1.49.6,2.66,1.33,3.47,2.18.8.84,1.35,1.76,1.63,2.72.3,1.01.45,1.94.45,2.74s-.15,1.73-.45,2.74c-.29.96-.83,1.88-1.63,2.72-.81.85-1.97,1.59-3.47,2.18-1.51.6-3.52.91-5.98.91h-.53l-2.06,4.6,15.66,26.5h7.5l-15.45-25.5c1.11-.21,2.27-.5,3.45-.87Z"/>
    <path class="cls-1" d="M409.11,41.01l-.57.8c-4.23,5.95-11.11,9.51-18.39,9.51-12.44,0-22.57-10.12-22.57-22.57s10.12-22.57,22.57-22.57c6.49,0,12.68,2.81,16.97,7.71l.61.69,4.2-4.62-.5-.55c-5.44-5.99-13.19-9.42-21.27-9.42-15.85,0-28.75,12.9-28.75,28.75s12.9,28.75,28.75,28.75c9.08,0,17.44-4.17,22.94-11.43l.43-.56-4.4-4.5Z"/>
    <path class="cls-1" d="M142.25,41.81c-4.23,5.95-11.11,9.51-18.39,9.51-12.44,0-22.57-10.12-22.57-22.57s10.12-22.57,22.57-22.57c6.49,0,12.68,2.81,16.97,7.71l.61.69,4.2-4.62-.5-.55c-5.44-5.99-13.19-9.42-21.27-9.42-15.85,0-28.75,12.9-28.75,28.75s12.9,28.75,28.75,28.75c9.08,0,17.44-4.17,22.94-11.43l.43-.56-4.4-4.5-.57.8Z"/>
    <path class="cls-1" d="M381.39,20.4s-3.41.74-4.55,2.23c-1.15,1.48-3.49,3.67-1.55,7.79,1.91,4.06,3.58,5.03,6.21,5.03s5.87-1.32,6.98-3.41c1.11-2.09,2.16-6.31.03-8.84-2.13-2.53-5.33-3.07-7.12-2.8Z"/>
    <path class="cls-1" d="M402.76,20.93c-2.51-.79-5.99-.52-7.69,1.14-1.69,1.66-3.96,5.36-2.7,8.42,1.26,3.05,4.15,4.54,5.94,4.82,0,0,3.38.25,4.93-.82,1.54-1.07,4.2-2.41,3.92-6.89-.28-4.48-1.89-5.87-4.4-6.67Z"/>
  </g>
  <g>
    <polygon class="cls-1" points="264.98 91.87 271.43 91.87 281.05 70.39 274.36 70.39 264.98 91.87"/>
    <polygon class="cls-1" points="104.12 72.13 100.56 72.13 100.56 118.17 124.36 118.17 125.74 115.01 104.12 115.01 104.12 72.13"/>
    <polygon class="cls-1" points="127.24 75.29 143.3 75.29 143.3 118.17 146.86 118.17 146.86 75.29 161.4 75.29 162.78 72.13 128.65 72.13 127.24 75.29"/>
    <polygon class="cls-1" points="250.87 75.25 250.92 75.17 250.92 72.13 220.87 72.13 219.46 75.29 246.48 75.29 218.77 115.18 218.72 115.26 218.72 118.17 250.06 118.17 251.44 115.01 222.96 115.01 250.87 75.25"/>
    <polygon class="cls-1" points="382.8 72.13 381.38 75.29 396.75 75.29 396.75 118.17 400.3 118.17 400.3 75.29 414.77 75.29 416.15 72.13 382.8 72.13"/>
    <polygon class="cls-1" points="64.35 72.02 44.26 118.07 47.94 118.07 53.23 105.63 64.04 105.63 65.41 102.47 54.61 102.47 66.15 75.33 83.61 117.88 83.69 118.07 87.7 118.07 68.32 72.02 64.35 72.02"/>
    <polygon class="cls-1" points="185.87 72.02 165.77 118.07 169.45 118.07 174.74 105.63 185.4 105.63 186.78 102.47 176.12 102.47 187.66 75.33 205.12 117.88 205.2 118.07 209.21 118.07 189.83 72.02 185.87 72.02"/>
    <polygon class="cls-1" points="303.69 72.02 283.59 118.07 287.27 118.07 292.57 105.63 303.36 105.63 304.74 102.47 293.94 102.47 305.48 75.33 322.94 117.88 323.02 118.07 327.04 118.07 307.65 72.02 303.69 72.02"/>
    <path class="cls-1" d="M356.73,95.68h0c1.25-.17,2.58-.48,3.97-.91,1.36-.42,2.62-1.08,3.74-1.95,1.12-.86,2.06-2.01,2.8-3.41.74-1.39,1.11-3.2,1.11-5.37,0-1.96-.32-3.64-.95-4.99-.64-1.36-1.45-2.49-2.42-3.38-.97-.89-2.08-1.57-3.31-2.04-1.25-.47-2.49-.82-3.7-1.04-1.21-.22-2.35-.35-3.39-.39-1.07-.04-1.89-.07-2.5-.07h-11.9v46.03h3.55v-42.88h9.67c2.33,0,4.26.3,5.74.89,1.48.59,2.65,1.34,3.49,2.22.83.88,1.41,1.85,1.72,2.88.3,1.01.45,1.94.45,2.76s-.15,1.76-.45,2.76c-.3,1.03-.88,2-1.72,2.88-.83.88-2,1.62-3.48,2.21-1.39.55-3.18.85-5.34.89h-.2s-1.23,2.75-1.23,2.75l13.29,22.64h4.01l-13.58-22.41.61-.08Z"/>
    <path class="cls-1" d="M31.09,98.69c-.99-1.63-2.25-2.94-3.75-3.87-.83-.52-1.73-.95-2.68-1.3.27-.14.51-.28.74-.43.76-.47,1.47-1.06,2.12-1.74.49-.51.94-1.09,1.39-1.79.38-.62.68-1.21.94-1.81.46-1.22.72-2.67.77-4.32-.01-.33-.03-.66-.05-.97-.15-1.83-.57-3.36-1.24-4.55-.87-1.54-2-2.76-3.37-3.63-1.38-.87-2.96-1.45-4.71-1.73-1.78-.28-3.56-.43-5.3-.43H2.88v19.23h3.56v-16.08h10.07c1.39,0,2.73.14,3.99.41,1.28.27,2.42.75,3.39,1.42.98.67,1.77,1.59,2.35,2.73.52,1.03.81,2.33.85,3.88v.17c.01.07.02.13.02.2,0,.78-.14,1.66-.41,2.59-.28.97-.85,1.88-1.69,2.72-.83.83-1.99,1.54-3.45,2.11-1.3.51-3,.79-5.06.84h-.24c-.11.01-.22.02-.33.02h-.57c-.16,0-4.27,0-4.27,0h-.31v3.13h6.04c.13,0,.26,0,.38.01h.32c.32,0,.65.02.98.04l.02-.31.08.31c1.8.12,3.32.42,4.53.9,1.61.64,2.87,1.45,3.74,2.42.78.87,1.36,1.89,1.77,3.13.2.61.52,2.51.53,3.41v.18c0,.87-.14,1.85-.44,2.92-.3,1.09-.9,2.14-1.78,3.11-.88.97-2.14,1.78-3.76,2.42-1.61.63-3.74.96-6.34.96H6.43v-17.86h-3.56v21.02h14.55c1.56,0,3.26-.18,5.05-.52,1.77-.34,3.44-.99,4.96-1.93,1.51-.93,2.77-2.24,3.77-3.87.99-1.63,1.5-3.77,1.5-6.37,0-1.04-.07-1.87-.21-2.61-.2-1.58-.67-2.99-1.39-4.18Z"/>
  </g>
</svg>